<svg xmlns="http://www.w3.org/2000/svg" viewBox="6 12 245.6 108.6" role="img" aria-label="FAA AC 00-56B Certified Company">
  <!-- circular seal -->
  <circle cx="60" cy="66" r="52" fill="#0a4d8c"/>
  <circle cx="60" cy="66" r="52" fill="none" stroke="#0a3560" stroke-width="2"/>
  <circle cx="60" cy="66" r="44" fill="none" stroke="#ffffff" stroke-width="1.5" opacity=".65"/>
  <!-- stylized eagle wing -->
  <g fill="#ffffff">
    <path d="M60 34 C 48 44, 40 50, 30 52 C 42 54, 50 58, 60 66 C 70 58, 78 54, 90 52 C 80 50, 72 44, 60 34 Z" opacity=".95"/>
    <path d="M60 48 C 52 55, 46 59, 38 61 C 47 63, 53 66, 60 72 C 67 66, 73 63, 82 61 C 74 59, 68 55, 60 48 Z" opacity=".55"/>
  </g>
  <text x="60" y="98" text-anchor="middle" font-family="Georgia, 'Times New Roman', serif" font-weight="700" font-size="30" letter-spacing="4" fill="#ffffff">FAA</text>
  <!-- text block -->
  <text x="128" y="52" font-family="Arial, Helvetica, sans-serif" font-weight="800" font-size="12.5" letter-spacing="0" fill="#0a4d8c">FEDERAL AVIATION</text>
  <text x="128" y="70" font-family="Arial, Helvetica, sans-serif" font-weight="800" font-size="12.5" letter-spacing="0" fill="#0a4d8c">ADMINISTRATION</text>
  <line x1="128" y1="80" x2="238" y2="80" stroke="#c9d6e4" stroke-width="2"/>
  <text x="128" y="100" font-family="Arial, Helvetica, sans-serif" font-weight="700" font-size="12" letter-spacing=".4" fill="#1b3a5b">AC 00-56B Certified</text>
  <text x="128" y="116" font-family="Arial, Helvetica, sans-serif" font-weight="700" font-size="12" letter-spacing=".4" fill="#1b3a5b">Distributor Program</text>
</svg>
